<svg version="1.0" xmlns="http://www.w3.org/2000/svg" width="1000.000000pt" height="1000.000000pt" viewBox="0 0 1000.000000 1000.000000">

<defs>
	<linearGradient id="gradient1" x1="0" x2="0" y1="1" y2="0">
		<stop offset="0%" stop-color="#0050ff"/>
		<stop offset="100%" stop-color="#00ffff"/>
	</linearGradient>
	<linearGradient id="gradient2" x1="0" x2="0.866" y1="0" y2="0.5">
		<stop offset="0%" stop-color="#0050ff"/>
		<stop offset="100%" stop-color="#00ffff"/>
	</linearGradient>
	<linearGradient id="gradient3" x1="0.866" x2="0" y1="0" y2="0.5">
		<stop offset="0%" stop-color="#0050ff"/>
		<stop offset="100%" stop-color="#00ffff"/>
	</linearGradient>
</defs>

<g transform="translate(0.000000,1000.000000) scale(0.100000,-0.100000)" fill="rgba(0,0,0,0)">
	<path d="M4008 9183 l-958 -556 0 -749 c0 -411 4 -748 8 -748 4 0 151 83 326
	184 l317 183 315 -181 314 -181 0 -370 0 -370 -308 -178 c-169 -97 -313 -181
	-321 -186 -15 -10 -37 3 699 -421 289 -166 539 -310 556 -321 l31 -19 643 373
	c353 205 643 376 643 381 -1 6 -142 91 -314 191 l-314 181 -2 369 -3 370 191
	109 c105 60 206 122 226 138 20 15 41 28 48 28 7 0 48 20 91 44 l77 45 41 -24
	c272 -158 599 -345 602 -345 2 0 3 338 2 751 l-3 750 -955 551 c-525 303 -964
	552 -975 554 -12 2 -405 -221 -977 -553z" stroke="url(#gradient1)" stroke-width="200"/>

	<path d="M2730 3987 l0 -373 -314 -182 c-173 -100 -317 -182 -320 -182 -4 0
	-81 43 -466 265 -69 39 -135 78 -147 86 l-23 14 0 368 c0 350 -1 368 -18 365
	-10 -2 -302 -167 -650 -368 l-631 -365 -1 -1116 c0 -882 3 -1119 13 -1127 6
	-5 89 -54 182 -107 94 -54 229 -132 300 -173 72 -41 146 -83 165 -94 19 -11
	76 -44 125 -73 50 -29 110 -64 135 -78 25 -14 176 -100 335 -192 303 -175 525
	-303 585 -337 19 -11 49 -28 65 -38 36 -22 -48 -66 707 372 310 179 575 332
	591 339 15 7 26 17 24 22 -1 5 -25 21 -52 36 -28 16 -147 84 -265 153 -118 68
	-239 138 -267 154 l-53 29 0 370 0 370 316 182 316 183 71 -42 c40 -22 105
	-61 144 -85 40 -23 75 -43 79 -43 3 0 18 -8 32 -19 15 -10 51 -31 80 -47 29
	-16 61 -34 70 -39 107 -64 161 -95 166 -95 3 0 6 336 6 748 l0 747 -28 16
	c-15 8 -72 42 -127 74 -55 32 -120 69 -145 83 -25 14 -92 53 -150 87 -58 34
	-125 73 -150 87 -39 22 -251 144 -345 198 -33 20 -210 121 -265 152 -19 11
	-44 27 -55 34 -11 8 -23 14 -27 14 -5 0 -8 -168 -8 -373z" stroke="url(#gradient2)" stroke-width="200"/>

	<path d="M6596 3995 c-346 -201 -635 -370 -643 -376 -11 -10 -13 -136 -11
	-750 2 -405 6 -740 10 -744 6 -7 176 88 369 206 53 33 99 59 102 59 3 0 25 13
	49 28 24 16 61 39 84 51 l41 23 159 -93 c87 -51 230 -132 317 -182 l157 -89 0
	-369 0 -368 -92 -54 c-51 -30 -193 -112 -315 -183 -122 -71 -223 -133 -224
	-139 -2 -5 55 -43 127 -84 169 -96 187 -106 334 -191 69 -40 139 -80 155 -90
	17 -9 149 -86 295 -170 146 -84 290 -166 320 -183 l56 -30 159 92 c88 50 167
	96 175 101 24 14 301 175 340 198 19 11 175 101 347 201 172 99 314 181 317
	181 3 0 24 13 48 29 24 16 71 44 104 62 34 19 113 64 176 101 63 36 130 75
	150 86 20 12 55 32 77 47 l41 25 0 1109 c0 1042 -1 1109 -17 1124 -15 12 -311
	187 -318 187 -1 0 -54 30 -116 66 -63 37 -129 75 -146 85 -18 11 -48 27 -65
	38 -18 10 -78 45 -133 76 -55 32 -113 65 -130 75 -16 9 -88 51 -160 92 -71 41
	-146 85 -165 96 -19 12 -38 22 -42 22 -4 0 -9 -167 -10 -371 l-3 -371 -318
	-184 -318 -184 -122 71 c-161 94 -300 175 -417 241 l-95 54 -3 372 c-1 205 -6
	372 -10 372 -4 -1 -290 -165 -636 -365z" stroke="url(#gradient3)" stroke-width="200"/>
</g>
</svg>